<svg width="744" height="667" viewBox="0 0 744 667" fill="none" xmlns="http://www.w3.org/2000/svg">
<path d="M242 108C235.2 110.666 235.333 108 234.667 194.533L234 275.333L220 276.133C207.067 276.933 205.867 277.333 203.067 280.533C200.8 283.2 200 285.866 200 290.133C200 293.866 199.333 296 198.4 296.133C197.467 296.266 166.8 296.266 130.267 296C59.7333 295.733 60 295.6 60 302C60 310.133 86.6667 340 106 353.6C129.067 369.866 158.533 380.666 190.667 384.666C199.067 385.733 201.333 387.2 201.333 391.333C201.333 396.8 204.533 398 223.2 398.666C243.067 399.466 247.067 400.8 255.867 409.6C270.4 424.4 271.867 446.133 259.733 468C247.067 490.666 230.267 503.466 196.4 516C189.867 518.4 188 523.866 188 540.533C188 561.466 184.8 560 231.2 560H269.067L279.2 554.533C297.467 544.666 310.4 542.4 347.333 542.4C385.2 542.4 398.933 544.8 416.8 554.666L426.533 560H464.267C485.067 560 502.667 559.466 503.467 558.933C506.8 556.8 508 551.466 508 539.333C508 523.733 506.133 518.533 499.867 516C470.533 504.533 446.8 484.933 434.933 462C430.133 452.933 430 452.266 430 438C430.133 413.066 437.467 398.533 463.867 372.533C491.067 345.333 527.2 325.866 564.533 318C578.267 315.066 578.667 314.533 578.667 296.533C578.667 282.533 578.533 281.333 575.733 279.466C573.2 277.6 565.867 277.333 523.733 277.333H474.667V227.333C474.667 187.333 474.267 176.4 472.8 172.933C470.4 167.466 412.533 109.866 407.6 108C403.067 106.4 246.133 106.266 242 108ZM392 152.266L392.667 180L396.4 183.6L400 187.333L428.4 188L456.667 188.666L457.067 243.066L457.333 297.333L355.067 297.066L252.667 296.666L252.267 210.266L252 124L321.6 124.266L391.333 124.666L392 152.266ZM429.733 170.4C419.733 170.533 410.667 170.4 409.733 170.133C408.4 169.6 408 164.666 408 149.733V130L428 150L448 170L429.733 170.4ZM197.067 310C198 310.4 198.667 313.066 198.667 316.666V322.666H180.267C158.933 322.666 134.533 320 113.2 315.466C99.4667 312.533 90.6667 310 90.6667 309.066C90.6667 308.4 195.2 309.333 197.067 310ZM277.067 495.733C260.533 511.466 256.933 514.8 250.267 520.133L243.733 525.333H229.867C221.467 525.333 216 524.8 216 524C216 523.2 216.8 522.666 217.733 522.666C220.8 522.666 245.867 509.6 266 497.6C277.067 491.066 286.267 485.866 286.4 486.133C286.667 486.266 282.533 490.666 277.067 495.733Z" fill="#D7D7D7"/>
<path d="M295.067 240.933C292.133 242.133 291.467 250.533 294 253.333C296.267 255.867 298.533 256 354.8 256C411.2 256 413.333 255.867 414.667 253.467C416.667 249.467 416.267 244.667 413.6 242.267C411.333 240.267 405.333 240 353.867 240.133C322.4 240.133 296 240.533 295.067 240.933Z" fill="#D7D7D7"/>
<path d="M527.266 99.2433C541.816 101.322 561.379 108.423 560.804 111.54C560.557 112.753 558.42 112.926 543.295 113.013C524.8 113.186 520.526 113.879 512.635 118.122C507.292 120.98 505.483 123.318 505.566 127.215C505.73 131.805 507.867 135.529 514.279 142.63C519.129 147.826 519.868 149.038 519.211 150.424C518.718 151.29 513.128 157.265 506.799 163.587C493.975 176.404 494.88 176.057 489.043 169.649C487.235 167.744 484.769 165.579 483.536 164.886C480.166 163.067 472.521 163.327 468.329 165.492C463.726 167.83 458.629 173.979 457.479 178.655C456.903 181.253 455.259 183.765 451.56 187.662C448.765 190.693 445.806 193.118 445.066 193.118C440.463 193.118 426.16 178.049 426.16 173.2C426.16 170.861 436.107 161.335 439.641 160.296C443.833 159.17 448.765 155.447 450.738 152.069C451.642 150.597 452.958 146.094 453.615 142.024L454.93 134.663L467.507 121.673C481.317 107.21 485.591 104.266 496.606 101.235C502.935 99.5031 520.69 98.3773 527.266 99.2433Z" fill="#EB38F6"/>
<path d="M528.5 159.084C550.118 185.757 600.918 238.496 638.648 273.569C644.977 279.458 651.471 285.52 653.033 286.992C654.594 288.464 659.362 292.794 663.636 296.605C671.445 303.619 673.172 306.217 672.267 309.508C671.61 311.846 651.8 333.063 648.594 334.882C644.237 337.307 644.073 337.134 626.235 315.224C591.136 272.184 548.063 225.073 517.567 196.409C508.032 187.316 500.141 179.695 500.141 179.435C500.141 178.829 523.403 154.148 523.979 154.148C524.225 154.148 526.28 156.399 528.5 159.084Z" fill="#EB38F6"/>
<rect x="385" y="140.713" width="8" height="51" rx="3" transform="rotate(-45.5746 385 140.713)" fill="#EB38F6"/>
<rect x="366" y="181.96" width="8" height="51" rx="3" transform="rotate(-84.2504 366 181.96)" fill="#EB38F6"/>
<rect x="375.532" y="213.205" width="7.41568" height="47.5454" rx="3" transform="rotate(-109.965 375.532 213.205)" fill="#EB38F6"/>
<rect x="392.455" y="237.626" width="8" height="51" rx="3" transform="rotate(-132.989 392.455 237.626)" fill="#EB38F6"/>
<path d="M455.633 244.372C455.9 246.007 454.791 247.55 453.156 247.817L451.182 248.139C449.547 248.406 448.004 247.297 447.737 245.662L440.484 201.25C440.217 199.615 441.326 198.073 442.961 197.806L444.935 197.484C446.57 197.216 448.112 198.326 448.379 199.961L455.633 244.372Z" fill="#EB38F6"/>
</svg>
